PathFileType	4	(X/Y/Z)	Patient4_TMGait_0pt3_02_right_21.trc.trc
DataRate	CameraRate	NumFrames	NumMarkers	Units	OrigDataRate	OrigDataStartFrame	OrigNumFrames
50.179211469534	50.179211469534	5	33	mm	50.179211469534	89	       141
Frame#	Time	Sacral			L.Shoulder			Chest			R.Shoulder			Neck			R.ASIS			L.ASIS			R.Thigh.Superior			R.Thigh.Lateral			R.Thigh.Inferior			R.Patella			L.Thigh.Superior			L.Thigh.Lateral			L.Thigh.Inferior			L.Patella			L.Shank.Superior			L.Shank.Lateral			L.Shank.Inferior			R.Shank.Superior			R.Shank.Lateral			R.Shank.Inferior			R.Heel			R.Midfoot.Superior			R.Midfoot.Lateral			R.Toe			L.Heel			L.Midfoot.Lateral			L.Midfoot.Superior			L.Toe			L.Elbow			L.Wrist			R.Elbow			R.Wrist			
		X1	Y1	Z1	X2	Y2	Z2	X3	Y3	Z3	X4	Y4	Z4	X5	Y5	Z5	X6	Y6	Z6	X7	Y7	Z7	X8	Y8	Z8	X9	Y9	Z9	X10	Y10	Z10	X11	Y11	Z11	X12	Y12	Z12	X13	Y13	Z13	X14	Y14	Z14	X15	Y15	Z15	X16	Y16	Z16	X17	Y17	Z17	X18	Y18	Z18	X19	Y19	Z19	X20	Y20	Z20	X21	Y21	Z21	X22	Y22	Z22	X23	Y23	Z23	X24	Y24	Z24	X25	Y25	Z25	X26	Y26	Z26	X27	Y27	Z27	X28	Y28	Z28	X29	Y29	Z29	X30	Y30	Z30	X31	Y31	Z31	X32	Y32	Z32	X33	Y33	Z33	

89	41.893714285714	759.095569213598	1005.352766509273	478.475800709935	902.187856650880	1421.202535683301	264.033214207148	1035.540773161270	1354.644389116214	402.610169675939	991.276399128908	1435.504203406286	586.173795612977	919.052214907919	1489.065570382136	418.289503025727	998.899100487712	930.527617135419	567.339878951663	953.051043284344	955.045951466120	296.638162066961	986.258164289060	717.997624694256	546.039922361591	882.075446628369	627.024485758417	614.219309785026	939.279140257255	557.157915339714	534.939519620903	913.917636012521	464.620418647464	546.047293772507	1028.634229430269	763.077433543052	336.281644816859	964.960781131944	633.172968706697	270.472461254071	1062.713114963678	570.108178089904	333.172136312259	1075.544739359500	496.262566754534	337.537813298328	1047.542383293806	421.959686885236	328.841422675458	960.360347337799	308.605804178913	272.959544841078	1009.932340602354	194.922914422668	339.025486240654	853.513886140508	390.980260162706	556.398230110464	751.470978840493	320.404690742421	623.695765590777	756.734685334401	214.623394442564	564.371466344492	573.192567788789	87.677720191190	543.976230389106	753.785576418166	102.786309970720	572.410267099816	656.202161851901	58.364606484042	612.722894393278	859.137086812280	36.244557696852	591.865976878546	879.505830628537	40.057527003097	370.514685307535	955.873942898203	37.024051276170	292.765786223163	1039.483946088035	97.147370027625	322.578437679873	1167.489662119534	42.093083529686	296.298964456046	815.677785792452	1073.284122353250	170.240499134478	913.536284275848	830.377021978766	170.373788401858	1168.364175571932	1140.408250299325	689.920655341591	1422.936509103661	1105.262926771452	655.525034926042	
90	41.913642857143	759.785729098849	1005.868640461409	472.126108413258	905.284189372996	1422.109762822314	259.159407915089	1036.910780796222	1355.303594965187	399.207421982433	990.694738857739	1436.075457711714	582.334164147455	920.218578785832	1489.816189237979	413.613158926932	998.724056907166	931.290493043833	562.807242082898	954.862241718422	955.394254320161	291.788352020600	987.025531562958	718.794819628472	542.528877229084	883.064845809783	627.860838910443	610.913288481213	941.216153128801	557.503576614878	532.579685106519	916.090315317343	464.080972515952	544.897186177151	1029.173828628189	762.443612351328	331.603783213842	964.271186155952	632.663603747862	266.942361320122	1061.532642922141	569.182669710504	329.843237180123	1073.728345145859	495.289038678129	334.802064040720	1045.034874747866	420.991806404704	326.666056433932	956.851016399358	308.089154292139	271.474268831247	1005.222147346560	194.462007497799	338.308025648051	854.061833489359	391.378341308391	555.273729643743	750.564706157933	322.924237407794	622.429053330403	754.782598685845	216.365251662498	564.293852713555	569.130808242918	92.536088242526	544.350946890296	749.977744409559	103.082396879898	572.536651911709	651.431926552992	60.913293688203	612.968236792903	853.460387525307	36.179210502249	591.805613997332	873.532874418733	40.130442943984	370.509246536715	949.889994015598	36.999742311447	292.758796543754	1033.579728615337	97.040504170073	322.517971678535	1161.549269887404	41.734191943310	296.251543376881	826.681731164123	1073.192019742444	161.097591568860	926.788397643456	831.344534170040	163.426509384781	1161.392695723231	1136.608832749921	687.856042841147	1414.669136637705	1088.667504480326	658.082674447129	
91	41.933571428571	760.401990255390	1006.317833773510	465.790727381773	908.366157433940	1423.050313611517	254.357275951856	1038.170558951514	1355.967926539576	395.910395022932	989.926082028590	1436.579227913717	578.588698331782	921.315993224323	1490.545729649751	409.012711578212	998.480740519286	932.076300188008	558.189505132660	956.587050777204	955.739622452466	286.902915989957	988.229136586793	719.621737683737	538.914023312539	884.784095923365	628.498751282106	607.546023890238	944.021187725452	557.777812179633	530.103825163184	919.267328523873	463.347170563611	543.764526010048	1029.585742881690	761.726291302105	326.807639666778	963.381328194084	632.141165319292	263.337157306356	1060.117272285696	568.211475889894	326.442337720554	1071.647431444722	494.309282535082	332.007289776879	1042.307950797447	420.033916505639	324.427107280498	953.180602282031	307.545386221566	269.915992117972	1000.403413716301	194.013448222842	337.549491124432	855.534157497197	391.657294957428	554.150592290481	750.477898731494	325.569853770166	621.134037539733	753.435425502958	218.242898533791	564.215666291600	565.529081147744	98.112631153654	544.734317077446	746.474967138915	103.444465573806	572.684150329652	646.905348712607	63.951451455197	613.228720915473	847.758369418676	36.054602803172	591.757663796004	867.550467153842	40.196977557633	370.485828177203	943.897955626890	36.965999811679	292.729913219832	1027.658508780242	96.939419739119	322.426619146401	1155.598695625895	41.419668081819	296.197766013747	838.327743678684	1073.189778959844	152.203528191528	940.294718708724	832.279716984172	156.955555247977	1153.037576082440	1132.273677083825	686.107346627095	1404.018617630821	1070.568107322099	661.177333020442	
92	41.953500000000	760.909840835683	1006.675496236722	459.477259194981	911.418104807526	1423.994807397358	249.654113426181	1039.306517283432	1356.602228291431	392.739394674196	988.951983360736	1436.966660075488	574.956540344195	922.335293307983	1491.219053017504	404.528863328796	998.142821370435	932.854024856842	553.519335443681	958.219328275001	956.049466210053	282.011892669899	989.924508676970	720.467724207976	535.217519686719	887.333742011072	628.902661898698	604.131874475621	947.820230542309	557.973731572708	527.505612257593	923.585226803243	462.417924467296	542.621173828863	1029.884455224171	760.923089070818	321.962926435156	962.349919088702	631.601228916395	259.689389976191	1058.523560001528	567.195327417212	323.029708219063	1069.371559306093	493.313305518910	329.207789686223	1039.421657460569	419.072894192387	322.164918250137	949.407381370594	306.975055996327	268.302720040183	995.496181449482	193.564142155145	336.770268058183	858.072401880938	391.808971216851	553.006816995868	751.353397869759	328.390884895443	619.796681483295	752.793989022157	220.323456598193	564.120139132138	562.522170257493	104.613539391330	545.086334453004	743.342647349716	103.995549976697	572.888490497420	642.688571746810	67.661354516305	613.476547823012	841.993246537565	35.834215366168	591.737071679055	861.561042132895	40.251159512358	370.443528416137	937.900348726595	36.923542613189	292.679710954783	1021.721292413377	96.845351393452	322.311296427363	1149.642433479064	41.149315617672	296.139199578608	850.464843713624	1073.283423916396	143.677629635961	954.095260464402	833.254337183831	150.997335177207	1143.287834446243	1127.468963277835	684.604232924140	1390.808941599302	1051.169996873665	664.711128303461	
93	41.973428571429	761.271517117789	1006.908519272070	453.192703725600	914.430552850702	1424.898849558432	245.079731959566	1040.307955247285	1357.158660696621	389.721805449322	987.752882051633	1437.182624499470	571.460830794075	923.266550765047	1491.792448096021	400.200082679967	997.681331519143	933.581476266929	548.844572059904	959.750033444622	956.281744256852	277.153870478845	992.157082008189	721.326891745563	531.455259038710	890.803814229468	629.047262000846	600.674255810203	952.718998207316	558.098784146992	524.762783437833	929.162419634473	461.307716340970	541.407477203018	1030.085621612267	760.027224870176	317.137283262349	961.235666794143	631.029206159186	256.034221810033	1056.813520032657	566.130378014207	319.663347801215	1066.976817787762	492.285239363054	326.453502326715	1036.440113482159	418.088582025470	319.919021396541	945.587301998195	306.373939451822	266.657221078569	990.524184114490	193.097322331833	335.987988890376	861.798541040357	391.836614944067	551.792394518748	753.326084445028	331.441535057693	618.376082210556	752.953506489239	222.684104062350	563.963466341255	560.259461062853	112.242894830478	545.331002920907	740.644956066051	104.883118689172	573.161366471881	638.859507185210	72.244896635975	613.658685663991	836.129563007195	35.484694432136	591.759498447219	855.565328642002	40.286424707113	370.381925798740	931.897951852608	36.871028354792	292.608980378019	1015.767625600476	96.757115542833	322.179266475422	1143.683226777613	40.920442841034	296.077707587636	862.932273160548	1073.462963522370	135.618442137412	968.219513886244	834.333238704038	145.572927334507	1132.160001823186	1122.271824920681	683.267894398947	1374.904950083163	1030.717566798215	668.564558987843	
